<svg xmlns="http://www.w3.org/2000/svg" xmlns:xlink="http://www.w3.org/1999/xlink" version="1.1" width="1000" height="1000" viewBox="0 0 1000 1000" xml:space="preserve">
<desc>Created with Fabric.js 3.5.0</desc>
<defs>
</defs>
<g transform="matrix(8.6901 0 0 8.6901 499.998 499.998)" id="SvgjsG3180">
<path style="stroke: none; stroke-width: 1; stroke-dasharray: none; stroke-linecap: butt; stroke-dashoffset: 0; stroke-linejoin: miter; stroke-miterlimit: 4; is-custom-font: none; font-file-url: none; fill: rgb(202,210,197); fill-rule: nonzero; opacity: 1;" transform=" translate(-52.2941, -51)" d="M 50.8 102 h 5.8 l 1.8 -0.2 l 1.7 -0.3 h 1.7 l 1.9 -0.3 l 1.8 -0.4 l 0.9 -0.2 l 0.9 -0.3 l 1.7 -0.6 l 2 -0.8 a 54 54 0 0 0 15.3 -9.4 l 1.4 -1.2 l 0.7 -0.5 l 0.6 -0.4 l 1 -0.5 l 0.8 -0.5 l 1.5 -1.2 l 1.5 -1.5 l 0.8 -1 l 0.9 -1.1 a 50.9 50.9 0 0 0 3.9 -5.8 a 34.8 34.8 0 0 0 1.6 -3.1 l 0.2 -0.4 l 0.2 -0.4 l 0.3 -0.8 l 0.3 -0.9 l 0.2 -0.4 v -0.4 l 0.4 -1.2 l 0.2 -0.6 v -0.3 h 0.1 v -0.2 l 0.7 -2.5 c 0.2 -0.9 0.4 -1.7 0.5 -2.6 a 25.4 25.4 0 0 0 0.2 -2.6 v -3.1 c 0 -0.3 0 -1 0.1 -1.5 v -2.1 a 21.3 21.3 0 0 0 0.2 -2.6 v -2.6 c 0 -0.9 -0.1 -1.1 -0.1 -1.6 l -0.2 -1.5 c -0.1 -1 -0.4 -2 -0.5 -3 s -0.2 -1 -0.3 -1.4 l -0.3 -1.4 l -0.3 -1.4 v -1.7 l -0.4 -1.4 l -0.2 -0.7 l -0.2 -0.7 l -0.4 -1.4 l -0.5 -1.4 l -0.4 -1 l -0.5 -1 l -1 -2.1 a 40.7 40.7 0 0 1 -1.8 -4.1 a 3.6 3.6 0 0 0 -0.8 -1.2 l -0.7 -0.6 l -0.2 -0.3 l -0.3 -0.5 a 25.7 25.7 0 0 0 -1.6 -2.3 l -0.8 -1.1 l -0.9 -1.1 l -0.4 -0.5 l -0.2 -0.3 l -0.2 -0.2 h -0.1 l -0.9 -1 l -0.5 -0.5 l -0.5 -0.5 l -0.9 -1.1 l -1.1 -1 a 47.9 47.9 0 0 0 -3.8 -3 l -0.1 -0.5 l -1.3 -0.9 A 29 29 0 0 0 72 0.4 h -3.1 a 0.8 0.8 0 0 0 -0.6 1.2 A 3.9 3.9 0 0 0 69.9 3 l -0.6 0.3 l -0.4 -0.2 a 0.9 0.9 0 0 0 0 -0.3 c -0.1 -0.5 -0.2 -0.9 -1.3 -1.3 L 65.3 0.7 l -0.6 -0.2 h -0.6 L 62.8 0 l -1.3 1.2 A 48.5 48.5 0 0 0 39 2.4 A 31.1 31.1 0 0 0 31.4 4 h -0.5 l -0.5 0.2 l -1 0.4 l -1 0.5 l -0.9 0.6 l -1.8 1.5 l -0.8 0.6 l -0.7 0.7 c -1 0.9 -1.9 1.9 -2.8 2.8 L 20 12.8 l -1.4 1.5 l -0.5 0.5 l -0.5 0.5 l -1.1 1 a 55.1 55.1 0 0 0 -7 7 l 0.2 -0.5 l 0.6 -1.1 l 0.6 -1.1 l 0.6 -1.1 l 0.6 -1.2 l 0.6 -1.2 l 1.2 -2.4 l 0.4 -0.8 l 0.3 -0.6 a 1 1 0 0 0 0 -0.8 a 3.7 3.7 0 0 1 -0.2 -1.2 a 17.1 17.1 0 0 0 -2.1 1.1 l -1.5 1.1 l -0.8 0.6 l -0.7 0.7 l -0.8 1 l -0.5 1 l -0.5 1 l -0.2 0.5 l -0.3 0.5 l -0.3 0.6 l -0.4 0.8 l -0.4 0.8 l -0.7 1.7 l -0.5 1.3 l -0.5 1.3 v 0.7 l -0.2 0.6 l -0.3 1.3 v 0.2 h -0.4 v 0.3 l -0.2 0.7 l -0.3 1.4 l -0.2 0.7 l -0.2 0.7 l -0.4 1.7 l -0.4 1.9 l -0.2 0.9 v 2.8 l -0.6 1.9 a 38.3 38.3 0 0 0 -0.1 4.1 a 52.7 52.7 0 0 0 -0.7 8.7 a 5.2 5.2 0 0 0 0 0.7 c 0.5 3 0.8 6 1.5 9 l 0.4 1.8 l 0.5 1.8 a 18.3 18.3 0 0 0 0.6 1.7 l 0.4 0.8 l 0.4 0.8 l 0.9 1.7 l 0.5 0.8 l 0.5 0.8 l 0.5 0.8 l 0.5 0.8 L 7.8 77 c 1.4 2 2.9 4 4.5 5.9 a 35.6 35.6 0 0 0 2.6 2.7 l 0.7 0.6 l 0.3 0.3 l 0.4 0.3 l 1.5 1.1 l 1 1 a 34 34 0 0 0 8.2 6.2 l 1.4 0.7 l 1.5 0.7 l 0.7 0.3 l 0.8 0.3 l 1.5 0.6 l 0.9 0.4 l 0.8 0.4 l 0.8 0.4 l 1 0.4 l 1.9 0.7 l 1.9 0.6 l 1.6 0.4 l 1.6 0.4 l 1.6 0.3 h 5.7 z" stroke-linecap="round"/>
</g>
<g transform="matrix(3.7879 0 0 3.7879 502.307 427.1739)" id="SvgjsG3181">
<path style="stroke: none; stroke-width: 1; stroke-dasharray: none; stroke-linecap: butt; stroke-dashoffset: 0; stroke-linejoin: miter; stroke-miterlimit: 4; is-custom-font: none; font-file-url: none; fill: rgb(53,79,82); fill-rule: nonzero; opacity: 1;" transform=" translate(-32, -32)" d="M 57.4 13.84 a 1 1 0 0 0 1 -1 V 10.73 h 4.32 a 1 1 0 0 0 1 -1 V 4.64 a 1 1 0 0 0 -1 -1 H 58.4 V 1 a 1 1 0 0 0 -1 -1 H 6.6 a 1 1 0 0 0 -1 1 V 3.64 H 1.28 a 1 1 0 0 0 -1 1 V 9.73 a 1 1 0 0 0 1 1 H 5.6 v 2.11 a 1 1 0 0 0 1 1 H 8.41 V 50.19 H 6.6 a 1 1 0 0 0 -1 1 v 2.36 H 1.28 a 1 1 0 0 0 -1 1 v 5.09 a 1 1 0 0 0 1 1 H 5.6 V 63 a 1 1 0 0 0 1 1 H 57.4 a 1 1 0 0 0 1 -1 V 60.64 h 4.32 a 1 1 0 0 0 1 -1 V 54.55 a 1 1 0 0 0 -1 -1 H 58.4 V 51.19 a 1 1 0 0 0 -1 -1 H 55.58 V 13.84 Z M 2.28 58.64 V 55.55 H 5.6 v 3.09 Z m 59.44 -3.09 v 3.09 H 58.4 V 55.55 Z m -5.32 -1 V 62 H 7.6 V 60 h 6.89 a 1 1 0 1 0 0 -2 H 7.6 V 56.31 h 6.89 a 1 1 0 0 0 0 -2 H 7.6 V 52.19 H 56.4 Z M 61.72 5.64 V 8.73 H 58.4 V 5.64 Z M 2.28 8.73 V 5.64 H 5.6 V 8.73 Z m 5.32 1 V 7.84 h 6.89 a 1 1 0 0 0 0 -2 H 7.6 V 2 H 56.4 v 9.82 H 7.6 Z m 46 40.45 H 10.41 V 13.84 H 53.58 Z" stroke-linecap="round"/>
</g>
<g transform="matrix(3.7879 0 0 3.7879 501.4577 429.9368)" id="SvgjsG3181">
<path style="stroke: none; stroke-width: 1; stroke-dasharray: none; stroke-linecap: butt; stroke-dashoffset: 0; stroke-linejoin: miter; stroke-miterlimit: 4; is-custom-font: none; font-file-url: none; fill: rgb(132,169,140); fill-rule: nonzero; opacity: 1;" transform=" translate(-31.7759, -32.7295)" d="M 19.59 37.47 c 1.28 5.2 7 9.61 12.41 9.62 h 0 c 6.26 0 10.94 -3.52 12.22 -9.19 a 11.52 11.52 0 0 0 -2.14 -9.73 a 9.17 9.17 0 0 0 -6.82 -3.72 c -3.22 0 -5.68 0.78 -7.35 2.46 a 7.29 7.29 0 0 0 -2.06 5.25 a 8.65 8.65 0 0 0 3 6.24 a 5.68 5.68 0 0 0 4.83 0.57 a 4.21 4.21 0 0 0 0.55 -7.74 A 1 1 0 0 0 33.4 33 a 2.12 2.12 0 0 1 1.05 2.67 a 2.09 2.09 0 0 1 -1.39 1.38 A 3.71 3.71 0 0 1 30 36.74 a 6.85 6.85 0 0 1 -2.12 -4.62 a 5.3 5.3 0 0 1 1.48 -3.8 c 1.27 -1.28 3.26 -1.92 5.9 -1.87 a 7.17 7.17 0 0 1 5.28 2.95 a 9.55 9.55 0 0 1 1.76 8.06 c -1.06 4.71 -5 7.63 -10.27 7.63 h 0 A 11.47 11.47 0 0 1 21.53 37 c -1.09 -4.44 -0.34 -8.84 2 -11.78 c 5.05 -6.29 10.6 -4.69 10.83 -4.62 a 1 1 0 0 0 0.6 -1.91 c -0.29 -0.09 -7 -2.12 -13 5.28 C 19.21 27.44 18.33 32.36 19.59 37.47 Z" stroke-linecap="round"/>
</g>
<g transform="matrix(3.7879 0 0 3.7879 448.1019 379.323)" id="SvgjsG3181">
<path style="stroke: none; stroke-width: 1; stroke-dasharray: none; stroke-linecap: butt; stroke-dashoffset: 0; stroke-linejoin: miter; stroke-miterlimit: 4; is-custom-font: none; font-file-url: none; fill: rgb(132,169,140); fill-rule: nonzero; opacity: 1;" transform=" translate(-17.69, -19.3675)" d="M 18.39 21.48 a 1 1 0 0 0 1.41 0 a 1 1 0 0 0 0 -1.41 L 17 17.26 a 1 1 0 0 0 -1.42 0 a 1 1 0 0 0 0 1.41 Z" stroke-linecap="round"/>
</g>
<g transform="matrix(3.7879 0 0 3.7879 448.0066 481.4717)" id="SvgjsG3181">
<path style="stroke: none; stroke-width: 1; stroke-dasharray: none; stroke-linecap: butt; stroke-dashoffset: 0; stroke-linejoin: miter; stroke-miterlimit: 4; is-custom-font: none; font-file-url: none; fill: rgb(132,169,140); fill-rule: nonzero; opacity: 1;" transform=" translate(-17.6648, -46.3348)" d="M 16.29 48.71 a 1 1 0 0 0 0.71 -0.3 l 2.8 -2.8 a 1 1 0 0 0 -1.41 -1.41 L 15.58 47 a 1 1 0 0 0 0 1.41 A 1 1 0 0 0 16.29 48.71 Z" stroke-linecap="round"/>
</g>
<g transform="matrix(3.7879 0 0 3.7879 557.9405 476.0366)" id="SvgjsG3181">
<path style="stroke: none; stroke-width: 1; stroke-dasharray: none; stroke-linecap: butt; stroke-dashoffset: 0; stroke-linejoin: miter; stroke-miterlimit: 4; is-custom-font: none; font-file-url: none; fill: rgb(132,169,140); fill-rule: nonzero; opacity: 1;" transform=" translate(-46.6874, -44.8999)" d="M 44.58 42.79 a 1 1 0 0 0 0 1.42 l 2.8 2.8 A 1 1 0 1 0 48.8 45.6 L 46 42.79 A 1 1 0 0 0 44.58 42.79 Z" stroke-linecap="round"/>
</g>
<g transform="matrix(3.7879 0 0 3.7879 550.684 378.7944)" id="SvgjsG3181">
<path style="stroke: none; stroke-width: 1; stroke-dasharray: none; stroke-linecap: butt; stroke-dashoffset: 0; stroke-linejoin: miter; stroke-miterlimit: 4; is-custom-font: none; font-file-url: none; fill: rgb(132,169,140); fill-rule: nonzero; opacity: 1;" transform=" translate(-44.7716, -19.228)" d="M 43.37 21.63 a 1 1 0 0 0 0.7 -0.29 l 2.81 -2.8 a 1 1 0 1 0 -1.42 -1.42 l -2.8 2.81 a 1 1 0 0 0 0 1.41 A 1 1 0 0 0 43.37 21.63 Z" stroke-linecap="round"/>
</g>
<g transform="matrix(3.7879 0 0 3.7879 446.8897 515.4688)" id="SvgjsG3181">
<path style="stroke: none; stroke-width: 1; stroke-dasharray: none; stroke-linecap: butt; stroke-dashoffset: 0; stroke-linejoin: miter; stroke-miterlimit: 4; is-custom-font: none; font-file-url: none; fill: rgb(48,56,65); fill-rule: nonzero; opacity: 1;" transform=" translate(-17.37, -55.31)" d="M 17.27 56.31 h 0.2 a 1 1 0 0 0 0 -2 h -0.2 a 1 1 0 1 0 0 2 Z" stroke-linecap="round"/>
</g>
<g transform="matrix(3.7879 0 0 3.7879 469.5034 529.4461)" id="SvgjsG3181">
<path style="stroke: none; stroke-width: 1; stroke-dasharray: none; stroke-linecap: butt; stroke-dashoffset: 0; stroke-linejoin: miter; stroke-miterlimit: 4; is-custom-font: none; font-file-url: none; fill: rgb(48,56,65); fill-rule: nonzero; opacity: 1;" transform=" translate(-23.34, -59)" d="M 23.29 60 h 0.1 a 1 1 0 1 0 0 -2 h -0.1 a 1 1 0 0 0 0 2 Z" stroke-linecap="round"/>
</g>
<g transform="matrix(3.7879 0 0 3.7879 452.3633 529.4461)" id="SvgjsG3181">
<path style="stroke: none; stroke-width: 1; stroke-dasharray: none; stroke-linecap: butt; stroke-dashoffset: 0; stroke-linejoin: miter; stroke-miterlimit: 4; is-custom-font: none; font-file-url: none; fill: rgb(48,56,65); fill-rule: nonzero; opacity: 1;" transform=" translate(-18.815, -59)" d="M 17.27 60 h 3.09 a 1 1 0 1 0 0 -2 H 17.27 a 1 1 0 0 0 0 2 Z" stroke-linecap="round"/>
</g>
<g transform="matrix(3.7879 0 0 3.7879 446.8897 331.8702)" id="SvgjsG3181">
<path style="stroke: none; stroke-width: 1; stroke-dasharray: none; stroke-linecap: butt; stroke-dashoffset: 0; stroke-linejoin: miter; stroke-miterlimit: 4; is-custom-font: none; font-file-url: none; fill: rgb(48,56,65); fill-rule: nonzero; opacity: 1;" transform=" translate(-17.37, -6.84)" d="M 17.27 7.84 h 0.2 a 1 1 0 0 0 0 -2 h -0.2 a 1 1 0 0 0 0 2 Z" stroke-linecap="round"/>
</g>
<g transform="matrix(2.4978 0 0 2.4978 500.0052 654.4386)" id="SvgjsG3182">
<path style="stroke: none; stroke-width: 1; stroke-dasharray: none; stroke-linecap: butt; stroke-dashoffset: 0; stroke-linejoin: miter; stroke-miterlimit: 4; is-custom-font: none; font-file-url: none; fill: rgb(47,62,70); fill-rule: nonzero; opacity: 1;" transform=" translate(-135.353, -25.303)" d="M 6.96 26.4 c 0.04 -2.96 0.04 -5.92 0.04 -8.88 c 0 -0.52 0.04 -1.08 0.08 -1.6 c 0 -0.28 -0.04 -0.56 -0.04 -0.8 c 0 -0.04 -0.04 -0.08 -0.08 -0.08 c -0.16 -0.04 -0.32 -0.04 -0.44 -0.04 l -4.44 0 l -0.72 0 c -0.12 0 -0.24 -0.04 -0.32 -0.08 c -0.08 0 -0.16 -0.08 -0.2 -0.16 c 0 -0.16 -0.04 -0.28 -0.08 -0.44 c -0.24 -0.68 -0.24 -1.36 -0.16 -2.08 c 0.04 -0.16 0.12 -0.32 0.16 -0.48 c 0.04 -0.08 0.12 -0.16 0.2 -0.16 c 0.08 -0.04 0.16 -0.04 0.24 -0.04 l 0.52 0 l 12.6 0 l 1 0 c 0.12 0 0.2 0 0.32 0.04 c 0.12 0 0.2 0.04 0.24 0.16 c 0.2 0.96 0.28 1.92 0.04 2.84 c -0.08 0.2 -0.2 0.32 -0.36 0.36 c -0.24 0 -0.44 0.04 -0.64 0.04 l -3.88 0 l -0.6 0 c -0.08 0.04 -0.16 0.12 -0.16 0.2 l 0 0.24 c 0.08 0.4 0.04 0.8 0.04 1.16 l 0 19.08 c 0 0.4 -0.04 0.8 -0.04 1.2 l 0 1.08 l 0 0.68 c -0.04 0.12 -0.12 0.24 -0.24 0.28 c -0.6 0.08 -1.2 0.16 -1.84 0.16 c -0.28 -0.04 -0.56 -0.08 -0.8 -0.16 c -0.16 -0.04 -0.24 -0.16 -0.24 -0.32 c -0.04 -0.44 -0.08 -0.88 -0.08 -1.36 c -0.08 -1.48 -0.08 -2.96 -0.08 -4.44 l 0 -2.68 l 0 -2 l 0 -1.72 l -0.04 0 z M 33.966 28.880000000000003 l -0.12 0.24 l 0 0.44 c -0.04 1.56 -0.04 3.12 -0.08 4.68 c -0.04 1.2 -0.12 2.36 -0.2 3.56 c 0 0.2 -0.08 0.4 -0.08 0.6 c -0.04 0.16 -0.12 0.24 -0.28 0.32 c -0.16 0.04 -0.32 0.08 -0.48 0.16 c -0.56 0.12 -1.08 0.16 -1.64 0 c -0.16 -0.08 -0.28 -0.2 -0.32 -0.36 c -0.04 -0.12 -0.08 -0.24 -0.08 -0.36 c -0.08 -0.68 -0.16 -1.32 -0.16 -2 c -0.08 -1.16 -0.04 -2.32 -0.08 -3.48 c -0.04 -0.96 -0.04 -1.92 -0.08 -2.84 c 0 -0.12 0.04 -0.24 -0.08 -0.36 c -0.24 -0.08 -0.48 -0.04 -0.72 0 c -1.4 0.24 -2.84 0.48 -4.24 0.72 l -0.36 0.12 c -0.04 0.04 -0.12 0.12 -0.12 0.16 c -0.04 0.16 -0.04 0.28 -0.04 0.44 l -0.12 5.64 c 0 0.4 -0.08 0.76 -0.12 1.12 c -0.04 0.2 0.04 0.48 -0.16 0.64 c -0.12 0.12 -0.36 0.12 -0.52 0.2 c -0.28 0.12 -0.6 0.16 -0.88 0.16 l -0.6 0 c -0.24 0 -0.44 -0.08 -0.64 -0.16 c -0.12 0 -0.2 -0.08 -0.2 -0.16 c -0.12 -0.52 -0.24 -1.04 -0.24 -1.56 c -0.04 -1.68 -0.04 -3.36 -0.04 -5.04 l 0 -0.68 c -0.04 -0.2 -0.12 -0.28 -0.28 -0.28 c -0.36 0 -0.68 0.04 -1.04 0.08 c -0.68 0.04 -1.32 -0.08 -2 -0.2 c -0.08 -0.04 -0.16 -0.12 -0.2 -0.2 c -0.08 -0.36 -0.2 -0.68 -0.24 -1 c -0.04 -0.36 0 -0.64 0.04 -0.96 c 0.04 -0.16 0.16 -0.28 0.32 -0.32 c 0.28 -0.08 0.56 -0.12 0.88 -0.12 c 0.76 -0.04 1.52 -0.2 2.24 -0.36 c 0.08 0 0.16 -0.04 0.2 -0.08 c 0.12 -0.24 0.08 -0.52 0.08 -0.76 l 0 -6 l 0 -3.16 c -0.04 -0.44 0.04 -0.88 0.24 -1.28 c 0.36 -0.84 0.72 -1.68 1.12 -2.52 c 0 -0.08 0.08 -0.16 0.16 -0.24 c 0 -0.04 0.08 -0.04 0.08 -0.08 c 0.4 -0.64 1.04 -0.96 1.56 -1.36 c 0.28 -0.2 0.56 -0.32 0.92 -0.32 c 0.2 -0.04 0.4 -0.08 0.6 -0.08 c 0.12 -0.04 0.28 -0.04 0.4 -0.08 c 0.36 -0.12 0.68 -0.2 1.04 -0.04 c 0.08 0.04 0.2 0.04 0.28 0.04 c 0.28 -0.12 0.52 -0.04 0.8 0 c 0.44 0.12 0.92 0.28 1.28 0.56 c 0.24 0.16 0.36 0.4 0.64 0.52 c 0.24 0.08 0.36 0.32 0.52 0.48 c 0.32 0.32 0.6 0.64 0.92 0.92 c 0.24 0.24 0.44 0.52 0.64 0.8 c 0.08 0.12 0.12 0.32 0.2 0.48 c 0.12 0.36 0.24 0.68 0.24 1.08 c 0 0.2 0.04 0.4 0.08 0.56 c 0.08 0.36 0.16 0.68 0.24 1.04 c 0.28 0.8 0.32 1.64 0.52 2.44 c 0.12 0.64 0.12 1.24 0.12 1.88 l 0 0.04 l 0 2.76 c 0 0.12 0 0.24 0.16 0.36 c 0.84 -0.08 1.76 -0.04 2.64 -0.04 c 0.12 0 0.24 0 0.36 0.04 c 0.04 0 0.16 0.08 0.16 0.16 c 0.04 0.28 0.12 0.6 0.16 0.92 c 0.04 0.44 0 0.84 0 1.28 c 0 0.16 -0.04 0.28 -0.08 0.44 s -0.16 0.28 -0.36 0.32 c -0.16 0.04 -0.28 0.04 -0.44 0.04 l -1.4 0 c -0.4 0 -0.76 0 -1.12 0.04 z M 30.326 23.28 l 0 -2.4 c 0 -0.28 0 -0.56 -0.16 -0.84 c -0.08 -0.12 -0.08 -0.24 -0.12 -0.36 c -0.04 -0.4 -0.16 -0.76 -0.36 -1.12 l -0.24 -0.6 c -0.16 -0.52 -0.4 -1 -0.8 -1.4 c -0.24 -0.24 -0.44 -0.48 -0.68 -0.72 c -0.08 -0.08 -0.24 -0.16 -0.36 -0.2 c -0.2 -0.08 -0.44 -0.12 -0.68 -0.12 c -0.72 0.04 -1 0.28 -1.12 0.92 c -0.04 0.04 -0.04 0.08 -0.04 0.12 c 0 0.32 -0.12 0.6 -0.2 0.88 c -0.12 0.36 -0.2 0.72 -0.24 1.08 c -0.04 0.28 -0.08 0.52 -0.2 0.8 c -0.2 0.56 -0.32 1.2 -0.32 1.8 c 0 0.48 -0.04 0.96 -0.04 1.4 c 0 0.2 0 0.4 0.04 0.6 c 0.08 0.16 0.04 0.36 0.04 0.52 c -0.12 0.52 -0.12 1.04 -0.08 1.56 c 0.04 0.48 0.08 0.96 0.08 1.48 c 0 0.08 0 0.2 0.04 0.28 c 0 0.04 0.04 0.08 0.08 0.08 c 0.12 0.04 0.2 0.04 0.32 0 c 0.6 -0.08 1.2 -0.16 1.8 -0.28 c 0.84 -0.2 1.68 -0.32 2.48 -0.48 c 0.2 0 0.36 -0.04 0.52 -0.08 s 0.24 -0.12 0.24 -0.32 l 0 -0.52 l 0 -2.08 z M 38.052 13 c 0.28 -0.24 0.6 -0.44 1 -0.44 c 0.08 0 0.16 -0.08 0.2 -0.16 c 0.08 -0.24 0.24 -0.28 0.44 -0.28 l 1 0 c 1.04 0 2.08 -0.04 3.08 0 c 0.4 0 0.8 -0.04 1.2 -0.2 c 0.12 -0.04 0.28 -0.04 0.44 0 c 0.2 0.08 0.44 0.12 0.68 0.16 c 0.32 -0.08 0.6 0.04 0.88 0.16 c 0.2 0.08 0.36 0.12 0.56 0.16 c 0.24 0.04 0.44 0.16 0.64 0.32 c 0.36 0.32 0.76 0.64 1.12 0.96 c 0.08 0.08 0.12 0.16 0.16 0.24 c 0.12 0.32 0.28 0.6 0.52 0.84 c 0.08 0.04 0.12 0.16 0.16 0.24 c 0.08 0.4 0.24 0.76 0.44 1.12 c 0.16 0.24 0.2 0.52 0.24 0.8 c 0.08 0.36 0.12 0.72 0.16 1.08 c 0.04 0.08 0.04 0.12 0.04 0.2 c 0.04 0.8 0.12 1.6 0.12 2.44 c 0.04 0.52 0.04 1.08 0.12 1.64 c 0.08 0.4 0.08 0.84 0.08 1.28 l 0 0.2 c -0.12 0.64 -0.28 1.24 -0.48 1.88 c -0.08 0.2 -0.24 0.4 -0.36 0.6 s -0.08 0.32 0.08 0.44 c 0.08 0.08 0.2 0.16 0.32 0.28 c 0.12 0.16 0.2 0.32 0.28 0.48 c 0.04 0.28 0.16 0.52 0.28 0.72 c 0.2 0.36 0.36 0.76 0.52 1.12 c 0.08 0.08 0.08 0.2 0.12 0.32 c 0.08 0.28 0.16 0.52 0.2 0.76 c 0.04 0.12 0.08 0.24 0.08 0.36 c 0.04 0.48 0.16 1 0.16 1.48 c 0 0.24 0.04 0.48 0.04 0.72 c 0.04 0.36 0.04 0.72 -0.08 1.04 c -0.04 0.12 -0.04 0.24 -0.08 0.36 c -0.12 0.24 -0.12 0.52 -0.24 0.76 c -0.08 0.2 -0.28 0.36 -0.4 0.56 c -0.32 0.56 -0.72 1 -1.08 1.52 c -0.08 0.12 -0.24 0.24 -0.4 0.28 c -0.16 0.08 -0.24 0.2 -0.28 0.36 c -0.08 0.28 -0.24 0.44 -0.48 0.52 c -0.12 0.04 -0.2 0.08 -0.32 0.12 c -0.2 0.12 -0.4 0.16 -0.64 0.16 l -1.48 0 c -0.28 0 -0.56 0 -0.84 0.08 c -0.24 0.04 -0.48 0.04 -0.72 0 c -0.32 -0.08 -0.68 -0.08 -1 -0.08 c -1.2 0 -2.36 0 -3.56 -0.08 c -0.64 -0.04 -1.24 0 -1.88 0 l -0.36 0 c -0.56 0 -0.56 -0.04 -0.64 -0.6 c -0.08 -0.44 -0.08 -0.84 -0.08 -1.28 c 0 -0.2 0.04 -0.4 0.12 -0.64 c 0.04 -0.12 0.12 -0.24 0.28 -0.24 c 0.2 -0.04 0.44 -0.04 0.64 -0.04 c 0.32 0 0.36 -0.12 0.36 -0.4 l 0 -0.44 l 0 -11.88 c 0 -0.8 0 -1.6 0.04 -2.4 c 0 -0.72 0.04 -1.4 0.04 -2.08 c 0.04 -0.88 0.04 -1.72 0.08 -2.6 c 0 -0.12 -0.04 -0.28 -0.04 -0.4 c 0 -0.08 -0.08 -0.16 -0.12 -0.16 c -0.16 -0.04 -0.32 -0.04 -0.52 -0.04 c -0.16 -0.04 -0.36 -0.08 -0.52 -0.16 c -0.12 -0.08 -0.24 -0.16 -0.28 -0.32 c -0.04 -0.24 -0.12 -0.48 -0.16 -0.72 c -0.08 -0.4 -0.04 -0.56 0.12 -1.12 z M 42.252 20.2 l 0.04 0 l 0 3.96 l 0 0.64 c 0 0.08 0.12 0.16 0.2 0.16 c 1.04 -0.12 2.08 -0.08 3.08 -0.04 c 0.4 0 0.76 0.04 1.12 0.16 c 0.4 0.08 0.72 -0.04 0.96 -0.32 c 0.12 -0.12 0.16 -0.24 0.24 -0.36 c 0.28 -0.48 0.36 -1 0.4 -1.56 c 0 -1.48 -0.08 -2.92 -0.16 -4.36 c -0.04 -0.68 -0.24 -1.36 -0.64 -1.96 c -0.16 -0.28 -0.28 -0.56 -0.48 -0.8 c -0.04 -0.12 -0.16 -0.24 -0.24 -0.32 s -0.16 -0.12 -0.24 -0.12 c -0.08 -0.04 -0.16 -0.04 -0.24 -0.04 l -2.44 0 c -0.16 0 -0.32 0.04 -0.48 0.08 c -0.24 0.08 -0.44 0.08 -0.68 0.08 c -0.12 0 -0.2 0 -0.28 0.04 s -0.16 0.08 -0.16 0.12 c -0.04 0.2 -0.04 0.36 -0.04 0.52 c 0.04 0.2 0.04 0.44 0.04 0.64 l 0 3.48 z M 42.292 31.8 l 0.04 0 l 0 2.92 l 0 0.6 c 0 0.04 0.12 0.16 0.2 0.16 c 0.68 0 1.32 0.08 2 -0.04 c 0.2 0 0.44 -0.04 0.64 -0.04 c 0.28 0 0.52 -0.04 0.76 -0.12 c 0.2 -0.04 0.4 -0.08 0.56 -0.12 c 0.16 0 0.36 0 0.48 -0.08 c 0.24 -0.04 0.44 -0.04 0.64 -0.08 c 0.52 -0.04 0.92 -0.24 1.2 -0.68 c 0.16 -0.2 0.28 -0.4 0.4 -0.6 s 0.2 -0.4 0.2 -0.64 s 0.04 -0.48 0.04 -0.72 c 0 -1.08 -0.32 -2.08 -0.92 -2.96 c -0.04 -0.08 -0.12 -0.16 -0.2 -0.2 c -0.32 -0.2 -0.68 -0.36 -1 -0.56 c -0.12 -0.04 -0.28 -0.08 -0.4 -0.04 c -0.24 0.08 -0.48 0.04 -0.72 0 l -0.36 0 c -0.2 -0.04 -0.4 -0.04 -0.6 0.08 c -0.2 0.08 -0.4 0.08 -0.56 0 c -0.08 -0.04 -0.2 -0.08 -0.28 -0.12 c -0.2 -0.08 -0.4 -0.12 -0.6 -0.12 l -0.28 0 c -0.16 0 -0.28 -0.04 -0.4 -0.12 c -0.24 -0.16 -0.48 -0.12 -0.72 -0.04 c -0.04 0.04 -0.08 0.08 -0.08 0.12 c -0.04 0.08 -0.04 0.2 -0.04 0.32 l 0 3.08 z M 56.098 11.600000000000001 c 0.16 -0.04 0.28 -0.08 0.4 -0.12 c 0.52 -0.24 1.08 -0.2 1.64 -0.2 c 0.08 0 0.12 0 0.16 0.04 c 0.56 0.12 0.68 0.08 0.72 0.76 c 0 0.72 0.04 1.48 0.04 2.2 l 0 20.8 l 0 0.72 c 0 0.28 0.04 0.36 0.36 0.36 l 0.44 0 c 0.6 0.12 1.16 0 1.72 -0.12 c 0.52 -0.12 1.04 -0.2 1.56 -0.2 l 3.84 0 c 0.08 0 0.16 0.04 0.28 0.04 c 0.2 0.72 0.24 1.44 0.2 2.2 c 0 0.16 -0.04 0.32 -0.08 0.48 c -0.04 0.2 -0.2 0.32 -0.4 0.36 c -0.24 0.04 -0.48 0.04 -0.72 0.04 c -0.6 0 -1.2 0 -1.84 -0.04 c -0.8 0 -1.64 0.08 -2.44 0.24 c -0.16 0.04 -0.28 0.04 -0.44 0.08 c -0.36 0.04 -0.68 0.08 -1.04 0.08 l -0.84 0 c -0.2 0 -0.36 -0.04 -0.52 -0.04 c -0.96 0 -1.88 -0.16 -2.84 -0.2 c -0.24 0 -0.48 -0.04 -0.72 -0.2 c -0.28 -0.52 -0.32 -1.12 -0.28 -1.72 c 0.04 -0.12 0.04 -0.24 0.08 -0.36 c 0.04 -0.16 0.12 -0.32 0.32 -0.4 c 0.04 -0.04 0.08 -0.08 0.12 -0.08 c 0.08 -0.24 0.08 -0.48 0.08 -0.72 l 0 -5.52 c 0 -4.32 -0.04 -8.68 0 -13 c 0 -1.2 0 -2.44 0.04 -3.68 c 0 -0.52 0.08 -1.04 0.12 -1.56 c 0 -0.08 0 -0.12 0.04 -0.24 z M 82.78399999999999 11.920000000000002 c 0 0.04 0.04 0.04 0.04 0.08 c 0.16 0.68 0.2 1.4 0.2 2.16 l -0.04 0.04 c -0.12 0.64 -0.08 0.76 -0.8 0.8 c -0.24 0.04 -0.52 0.04 -0.8 0.04 l -6.28 0 c -0.24 0 -0.48 0 -0.72 0.04 c -0.2 0 -0.28 0.08 -0.28 0.24 l 0 0.72 s 0.04 0.48 0.04 0.72 l 0 1.32 c 0 0.56 0 1.08 0.08 1.64 l 0 0.6 l 0 5.12 c 0 0.24 -0.04 0.48 0.04 0.76 c 0.12 -0.04 0.2 0 0.28 -0.04 c 0.92 -0.32 1.84 -0.48 2.76 -0.52 c 0.64 -0.08 1.32 -0.12 1.96 -0.24 c 0.32 -0.08 0.64 -0.12 1 -0.12 c 0.36 -0.04 0.64 -0.08 0.96 -0.28 c 0.08 -0.04 0.24 -0.04 0.32 0.08 c 0.16 0.2 0.36 0.36 0.6 0.52 c 0.36 0.24 0.56 0.88 0.28 1.44 c -0.32 0.6 -0.48 0.84 -1.32 1 c -0.28 0.04 -0.52 0.08 -0.8 0.12 c -0.84 0.12 -1.68 0.24 -2.52 0.32 c -0.12 0.04 -0.28 0.04 -0.4 0.04 c -1.04 0.08 -2 0.36 -2.92 0.8 c -0.16 0.08 -0.24 0.2 -0.24 0.4 l 0 1.08 l 0 4 c 0 0.2 0 0.4 0.04 0.64 c 0 0.08 0.04 0.12 0.12 0.16 l 0.64 0 l 6.32 0 l 0.48 0 c 0.72 0.04 0.64 -0.04 0.76 0.64 c 0.08 0.56 0.08 1.08 0.08 1.6 l 0 0.16 c -0.2 0.6 -0.12 0.72 -0.84 0.72 c -1.08 0.04 -2.16 0.04 -3.28 0 l -2.32 0 c -0.96 0 -1.96 0 -2.96 -0.04 c -0.56 -0.04 -1.08 -0.12 -1.64 -0.2 c -0.12 0 -0.2 -0.12 -0.24 -0.24 c -0.32 -0.88 -0.32 -0.88 -0.32 -1.84 c -0.04 -1.08 -0.04 -2.2 -0.04 -3.32 l 0 -8.04 c 0.04 -2.4 0.08 -4.84 0.08 -7.24 c 0 -0.8 0.08 -1.6 0.08 -2.4 c 0 -0.16 0.04 -0.36 -0.12 -0.52 c -0.08 -0.32 -0.2 -0.6 -0.28 -0.88 c -0.08 -0.64 -0.12 -1.28 0.08 -1.88 c 0.08 -0.16 0.16 -0.24 0.32 -0.24 l 0.52 0 l 10.44 0 c 0.2 0 0.44 -0.04 0.64 0.04 z M 92.74999999999999 26.4 c 0.04 -2.96 0.04 -5.92 0.04 -8.88 c 0 -0.52 0.04 -1.08 0.08 -1.6 c 0 -0.28 -0.04 -0.56 -0.04 -0.8 c 0 -0.04 -0.04 -0.08 -0.08 -0.08 c -0.16 -0.04 -0.32 -0.04 -0.44 -0.04 l -4.44 0 l -0.72 0 c -0.12 0 -0.24 -0.04 -0.32 -0.08 c -0.08 0 -0.16 -0.08 -0.2 -0.16 c 0 -0.16 -0.04 -0.28 -0.08 -0.44 c -0.24 -0.68 -0.24 -1.36 -0.16 -2.08 c 0.04 -0.16 0.12 -0.32 0.16 -0.48 c 0.04 -0.08 0.12 -0.16 0.2 -0.16 c 0.08 -0.04 0.16 -0.04 0.24 -0.04 l 0.52 0 l 12.6 0 l 1 0 c 0.12 0 0.2 0 0.32 0.04 c 0.12 0 0.2 0.04 0.24 0.16 c 0.2 0.96 0.28 1.92 0.04 2.84 c -0.08 0.2 -0.2 0.32 -0.36 0.36 c -0.24 0 -0.44 0.04 -0.64 0.04 l -3.88 0 l -0.6 0 c -0.08 0.04 -0.16 0.12 -0.16 0.2 l 0 0.24 c 0.08 0.4 0.04 0.8 0.04 1.16 l 0 19.08 c 0 0.4 -0.04 0.8 -0.04 1.2 l 0 1.08 l 0 0.68 c -0.04 0.12 -0.12 0.24 -0.24 0.28 c -0.6 0.08 -1.2 0.16 -1.84 0.16 c -0.28 -0.04 -0.56 -0.08 -0.8 -0.16 c -0.16 -0.04 -0.24 -0.16 -0.24 -0.32 c -0.04 -0.44 -0.08 -0.88 -0.08 -1.36 c -0.08 -1.48 -0.08 -2.96 -0.08 -4.44 l 0 -2.68 l 0 -2 l 0 -1.72 l -0.04 0 z M 106.83599999999998 21.2 c 0.4 0.56 0.84 1.08 1.32 1.6 c 0.36 0.44 0.8 0.72 1.28 0.96 c 0.36 0.12 0.68 0.28 1 0.44 c 0.56 0.36 1.04 0.72 1.48 1.16 c 0.4 0.4 0.8 0.84 1.24 1.16 c 0.12 0.12 0.2 0.24 0.36 0.36 l 0.32 0 c 0.12 0.04 0.2 0.08 0.28 0.16 c 0.28 0.28 0.48 0.6 0.56 1 c 0.04 0.32 0.12 0.64 0.24 0.96 c 0.12 0.4 0.16 0.84 0.2 1.28 l 0 1.16 c 0 0.2 0 0.44 0.12 0.64 c 0.04 0.08 0.04 0.2 0.04 0.32 c 0.04 0.24 0.04 0.48 0.08 0.68 c 0.08 0.56 0.08 1.08 -0.04 1.64 c -0.04 0.08 -0.04 0.2 -0.04 0.32 c -0.04 0.08 -0.04 0.2 -0.08 0.32 c -0.16 0.4 -0.24 0.84 -0.4 1.28 c 0 0.04 -0.04 0.12 -0.08 0.16 c -0.2 0.28 -0.36 0.6 -0.56 0.88 c -0.08 0.12 -0.16 0.24 -0.28 0.36 c -0.32 0.08 -0.64 0.2 -0.96 0.4 c -0.08 0.08 -0.2 0.12 -0.36 0.12 c -0.12 0 -0.28 0.04 -0.44 0.04 c -0.24 0.04 -0.4 0.12 -0.56 0.32 s -0.36 0.28 -0.6 0.32 l -0.2 0 c -0.24 0.04 -0.52 0.12 -0.76 0.12 c -0.28 0 -0.52 -0.08 -0.76 -0.12 l -0.4 0 c -0.24 0 -0.48 -0.04 -0.68 -0.16 c -0.36 -0.16 -0.76 -0.28 -1.12 -0.36 c -0.28 -0.08 -0.52 -0.2 -0.76 -0.36 s -0.48 -0.32 -0.72 -0.44 c -0.6 -0.32 -1 -0.88 -1.36 -1.48 c -0.04 -0.2 -0.12 -0.4 -0.12 -0.6 c -0.04 -0.4 -0.16 -0.76 -0.2 -1.16 c -0.12 -0.6 -0.24 -1.2 -0.2 -1.8 c 0.04 -0.2 0.04 -0.4 0.08 -0.6 c 0.04 -0.28 0.08 -0.56 0.08 -0.84 c 0 -0.16 0 -0.32 0.04 -0.48 c 0.12 -0.28 0.08 -0.52 0.04 -0.76 c -0.08 -0.24 -0.12 -0.44 -0.2 -0.68 c 0.08 -0.2 0.16 -0.4 0.24 -0.64 c 0.04 -0.12 0.16 -0.2 0.28 -0.2 l 0.48 0 c 0.44 -0.04 0.92 -0.04 1.36 -0.04 c 0.2 0 0.32 0.08 0.44 0.2 c 0.08 0.08 0.12 0.16 0.12 0.24 c -0.04 0.24 0 0.44 0.2 0.6 c 0.08 0.08 0.12 0.2 0.08 0.36 c -0.04 0.08 -0.08 0.2 -0.12 0.32 c -0.08 0.2 -0.12 0.44 -0.08 0.68 c 0.08 0.24 0.04 0.52 0.08 0.76 c 0 0.28 -0.04 0.52 0.08 0.8 c 0.04 0.12 0.04 0.24 0 0.36 c -0.12 0.36 -0.08 0.68 -0.04 1.04 c 0 0.16 0.08 0.32 0.24 0.44 c 0.36 0.32 0.72 0.6 1.2 0.76 c 0.12 0.04 0.28 0.12 0.4 0.16 c 0.2 0.08 0.4 0.12 0.64 0.12 c 0.16 0 0.36 0 0.52 0.08 c 0.56 0.12 1.08 0.04 1.6 -0.16 c 0.2 -0.04 0.4 -0.16 0.6 -0.24 c 0.16 -0.44 0.32 -0.84 0.28 -1.32 l 0 -2.84 l 0 -0.4 c 0 -0.28 -0.08 -0.52 -0.36 -0.64 c -0.08 -0.08 -0.16 -0.16 -0.2 -0.28 c -0.08 -0.36 -0.32 -0.64 -0.6 -0.88 c -0.52 -0.48 -1 -0.96 -1.52 -1.44 c -0.12 -0.08 -0.2 -0.2 -0.36 -0.24 c -0.16 0 -0.36 -0.08 -0.48 -0.16 c -0.28 -0.16 -0.56 -0.24 -0.88 -0.32 c -0.8 -0.2 -1.52 -0.56 -2.12 -1.12 c -0.52 -0.48 -0.84 -1.04 -1.16 -1.56 c -0.16 -0.24 -0.28 -0.52 -0.4 -0.76 c -0.2 -0.36 -0.24 -0.8 -0.36 -1.16 c -0.04 -0.08 0 -0.16 0 -0.2 c 0.08 -0.28 0.12 -0.52 -0.04 -0.76 c -0.04 -0.48 -0.16 -0.92 -0.12 -1.4 c 0.04 -0.44 0.08 -0.88 0.04 -1.32 l 0 -0.16 c 0.12 -0.32 0.12 -0.6 0.12 -0.92 l 0 -1.88 c -0.04 -0.4 0.08 -0.76 0.32 -1.08 c 0.08 -0.12 0.12 -0.2 0.2 -0.28 c 0.28 -0.36 0.6 -0.76 0.92 -1.12 c 0.04 -0.08 0.12 -0.12 0.24 -0.2 c 0.36 -0.16 0.64 -0.4 0.96 -0.64 c 0.24 -0.2 0.52 -0.36 0.84 -0.48 c 0.28 -0.08 0.52 -0.24 0.8 -0.24 c 0.12 0 0.24 -0.04 0.4 -0.04 c 0.32 0 0.64 -0.04 0.96 -0.08 c 0.2 -0.04 0.44 0 0.64 0.04 c 0.36 0.04 0.68 0.08 1.04 0.08 c 0.24 0.04 0.52 0.04 0.76 0.12 c 0.2 0.04 0.4 0.16 0.6 0.28 c 0.32 0.2 0.56 0.52 0.76 0.84 c 0.16 0.24 0.28 0.48 0.48 0.68 c 0.12 0.16 0.24 0.32 0.28 0.52 c 0.04 0.12 0.08 0.24 0.16 0.36 c 0.12 0.36 0.24 0.72 0.28 1.12 c 0.04 0.16 0.08 0.32 0.08 0.44 c 0.04 0.32 0.16 0.6 0.4 0.8 c 0.12 0.08 0.12 0.16 0.12 0.28 c 0 0.48 0 0.96 -0.04 1.44 c -0.08 0.36 -0.08 0.72 -0.08 1.08 c 0 0.52 -0.04 1 -0.16 1.48 c -0.04 0.2 -0.04 0.36 0 0.52 c 0.04 0.12 0.04 0.2 0.04 0.32 c 0 0.08 0 0.12 -0.04 0.2 c -0.16 0.16 -0.32 0.28 -0.52 0.36 c -0.44 0.12 -0.88 0.2 -1.36 0.28 c -0.04 0.04 -0.12 0 -0.16 -0.04 c -0.12 -0.12 -0.28 -0.28 -0.4 -0.44 c 0 -0.04 -0.04 -0.12 -0.04 -0.16 c -0.04 -0.28 -0.08 -0.52 -0.08 -0.8 c 0.04 -0.36 0 -0.72 0 -1.08 c 0 -0.28 0.04 -0.56 -0.04 -0.84 c -0.04 -0.04 -0.04 -0.08 -0.04 -0.12 c 0.08 -0.72 -0.12 -1.44 -0.28 -2.12 c 0 -0.04 0 -0.08 -0.04 -0.12 c -0.2 -0.36 -0.36 -0.8 -0.68 -1.12 c -0.2 -0.24 -0.44 -0.48 -0.68 -0.68 c -0.28 -0.24 -0.6 -0.36 -0.88 -0.52 l -0.2 0 c -0.44 0 -0.84 0.16 -1.24 0.36 c -0.08 0.04 -0.12 0.12 -0.2 0.16 l -0.56 0.56 s -0.4 0.4 -0.44 0.68 c 0 0.12 -0.04 0.2 -0.04 0.28 c -0.04 0.08 -0.08 0.2 -0.04 0.32 c 0.04 0.32 -0.16 0.68 -0.12 1 l 0 2.88 c 0 0.16 0.04 0.32 0.04 0.52 z M 130.808 39.72 l -0.36 -0.12 s -0.24 -0.04 -0.32 0 s -0.2 0.04 -0.28 0.04 c -0.6 -0.08 -1.32 -0.24 -1.8 -0.8 c -0.04 0 -0.08 -0.04 -0.12 -0.08 c -0.64 -0.4 -1.04 -1 -1.6 -1.52 c -0.2 -0.16 -0.32 -0.36 -0.44 -0.56 c -0.08 -0.16 -0.16 -0.36 -0.2 -0.52 c -0.12 -0.28 -0.2 -0.56 -0.2 -0.84 c 0.04 -0.2 -0.04 -0.4 -0.08 -0.6 c -0.08 -0.28 -0.12 -0.56 -0.2 -0.84 c -0.2 -0.68 -0.28 -1.36 -0.44 -2.04 c -0.08 -0.36 -0.08 -0.72 -0.08 -1.08 c 0 -1.24 -0.04 -2.48 -0.04 -3.72 s 0.04 -2.48 0.04 -3.76 l 0 -1.8 c 0.04 -0.28 0 -0.56 -0.16 -0.8 c -0.04 -0.08 -0.04 -0.2 -0.04 -0.32 c 0.04 -0.08 0.04 -0.12 0.04 -0.2 c 0.08 -0.44 0.08 -0.88 -0.04 -1.32 c -0.04 -0.2 -0.04 -0.4 0 -0.6 c 0.08 -0.36 0.12 -0.68 0 -1 l 0 -0.28 c 0.04 -0.12 0.04 -0.2 0.08 -0.32 c 0.12 -0.28 0.16 -0.6 0.16 -0.92 c 0 -0.24 0.04 -0.48 0.16 -0.72 c 0.2 -0.48 0.52 -0.88 0.72 -1.36 c 0.04 -0.08 0.08 -0.16 0.16 -0.2 c 0.4 -0.44 0.8 -0.88 1.28 -1.2 c 0.32 -0.2 0.6 -0.44 0.92 -0.68 c 0.16 -0.16 0.36 -0.24 0.6 -0.28 c 0.32 -0.08 0.6 -0.12 0.92 -0.2 c 0.16 -0.08 0.32 -0.08 0.44 -0.08 c 0.16 -0.04 0.32 -0.04 0.48 -0.08 c 0.12 -0.04 0.28 -0.04 0.4 0.04 c 0.04 0.04 0.12 0.04 0.16 0.08 c 0.2 0.12 0.44 0.16 0.68 0.16 l 0.4 0 s 0.28 0.04 0.4 0.16 c 0.04 0.04 0.08 0.08 0.12 0.08 c 0.12 0.16 0.28 0.24 0.44 0.28 c 0.44 0.16 0.72 0.44 1 0.8 c 0.16 0.24 0.36 0.52 0.6 0.72 c 0.08 0.08 0.16 0.2 0.2 0.32 c 0.12 0.28 0.24 0.52 0.32 0.84 c 0.04 0.2 0.16 0.4 0.24 0.6 c 0.12 0.24 0.2 0.52 0.24 0.76 c 0 0.36 0.08 0.72 0.16 1.08 c 0.08 0.32 0.12 0.68 0.12 1 c -0.04 0.32 0 0.64 0.12 0.92 c 0.04 0.12 0.04 0.24 0.04 0.32 c 0.04 0.2 0.04 0.4 -0.08 0.52 c -0.08 0.12 -0.08 0.28 -0.08 0.4 l 0 0.72 l 0 13.24 c 0.04 0.6 -0.12 1.2 -0.36 1.76 l -0.84 1.92 c -0.08 0.12 -0.16 0.2 -0.24 0.32 c -0.36 0.52 -0.92 0.84 -1.4 1.2 c -0.2 0.16 -0.4 0.24 -0.64 0.28 c -0.12 0 -0.28 0.04 -0.4 0.04 c -0.4 0 -0.8 0.12 -1.2 0.24 z M 127.80799999999999 26.52 l 0 4.48 l 0 0.68 c 0 0.12 0 0.24 0.04 0.32 c 0.16 0.28 0.2 0.56 0.24 0.84 c 0.04 0.12 0.08 0.28 0.12 0.4 c 0.16 0.4 0.32 0.76 0.48 1.16 c 0.08 0.16 0.16 0.36 0.24 0.48 c 0.28 0.32 0.56 0.64 0.8 0.92 c 0.32 0.36 0.76 0.48 1.24 0.44 c 0.36 -0.04 0.64 -0.16 0.8 -0.52 c 0.04 -0.08 0.04 -0.16 0.08 -0.24 c 0 -0.36 0.12 -0.72 0.24 -1.08 c 0.08 -0.28 0.16 -0.56 0.16 -0.84 c 0 -0.2 0.08 -0.4 0.12 -0.6 c 0.24 -0.56 0.32 -1.16 0.36 -1.76 c 0 -0.44 0 -0.84 0.04 -1.28 c 0 -0.16 0 -0.32 -0.08 -0.48 c -0.04 -0.08 -0.04 -0.2 0 -0.32 c 0.12 -0.52 0.08 -1.04 0.04 -1.56 c -0.08 -0.76 -0.04 -1.56 -0.04 -2.32 c 0 -1.48 0.04 -2.92 0.04 -4.4 c 0.04 -0.24 0.04 -0.44 -0.04 -0.68 c -0.04 -0.08 -0.04 -0.2 -0.04 -0.32 c -0.04 -0.56 -0.12 -1.12 -0.24 -1.68 s -0.24 -1.12 -0.24 -1.72 c 0 -0.28 -0.12 -0.56 -0.24 -0.84 c -0.08 -0.16 -0.2 -0.28 -0.28 -0.44 c -0.08 -0.2 -0.24 -0.32 -0.44 -0.4 c -0.08 -0.08 -0.2 -0.12 -0.28 -0.16 c -0.6 -0.2 -1.12 -0.16 -1.6 0.24 c -0.28 0.24 -0.52 0.48 -0.76 0.76 c -0.16 0.12 -0.24 0.32 -0.28 0.52 c -0.08 0.4 -0.16 0.84 -0.24 1.24 l 0 0.2 c 0 0.2 -0.04 0.4 0 0.6 c 0 0.24 -0.16 0.44 -0.2 0.68 l 0 0.04 c -0.04 0.52 -0.12 1.04 -0.16 1.56 c -0.04 0.36 -0.04 0.76 0.04 1.12 c 0.04 0.12 0.04 0.24 0.04 0.36 c 0 1.56 -0.04 3.16 0.04 4.6 z M 138.05399999999997 14.84 c -0.16 -0.68 -0.2 -1.4 -0.16 -2.12 l 0.12 -0.48 c 0.04 -0.12 0.12 -0.2 0.24 -0.24 l 1.32 -0.12 c 0.08 0 0.12 0 0.2 -0.04 c 0.96 -0.16 1.88 -0.16 2.84 -0.16 l 7.64 0 c 0.56 0 1.16 0.08 1.72 0.16 c 0.08 0 0.16 0.08 0.16 0.12 c 0.12 0.72 0.2 1.44 0.16 2.16 c 0 0.24 -0.08 0.44 -0.16 0.64 c -0.08 0.08 -0.16 0.16 -0.24 0.16 c -0.36 0 -0.72 0.04 -1.08 0.04 l -6.32 0 l -0.8 0 c -0.2 0 -0.32 0.12 -0.32 0.32 s -0.04 0.36 0 0.52 c 0.08 0.44 0.04 0.88 0.04 1.32 l 0 1.36 c 0 0.4 0 0.8 0.04 1.16 c 0.04 0.16 0.04 0.36 0.04 0.52 l 0 3.44 c 0 0.28 -0.04 0.56 -0.04 0.84 c -0.04 0.12 0 0.24 0 0.36 c 0 0.08 0.08 0.16 0.16 0.12 c 0.24 0 0.48 -0.04 0.72 -0.08 c 0.56 -0.12 1.12 -0.12 1.72 -0.08 c 0.4 0 0.76 -0.08 1.12 -0.24 c 0.16 -0.08 0.32 -0.2 0.48 -0.28 c 0.32 -0.2 0.6 -0.2 0.92 -0.08 l 0.24 0.36 c 0.32 0.28 0.44 0.68 0.56 1.08 c 0.08 0.2 0.16 0.44 0.24 0.68 c 0.04 0.16 0.04 0.32 0.08 0.48 c 0 0.08 -0.04 0.12 -0.04 0.16 c -0.16 0.16 -0.28 0.32 -0.44 0.48 c -0.04 0 -0.08 0.04 -0.16 0.04 c -0.24 0.04 -0.44 0.16 -0.64 0.32 s -0.44 0.24 -0.72 0.32 c -0.16 0 -0.32 0.04 -0.48 0.12 c -0.28 0.16 -0.56 0.16 -0.84 0.12 c -0.12 -0.04 -0.24 -0.04 -0.36 -0.08 c -0.72 -0.24 -1.4 -0.12 -2.04 0.12 c -0.08 0.04 -0.16 0.08 -0.2 0.16 c -0.08 0.12 -0.12 0.24 -0.24 0.32 c -0.04 0.04 -0.08 0.16 -0.08 0.2 l 0 0.88 l 0 4.88 c 0 0.44 0.04 0.92 0.08 1.36 c 0.04 0.56 0.04 1.12 0 1.72 c -0.08 0.08 -0.24 0.16 -0.32 0.28 s -0.12 0.28 -0.16 0.4 c -0.36 0.2 -0.8 0.24 -1.16 0.36 c -0.36 0.08 -0.68 -0.08 -1 -0.24 c -0.08 -0.04 -0.16 -0.12 -0.2 -0.16 c -0.24 -0.2 -0.36 -0.4 -0.36 -0.68 l 0 -0.68 c -0.04 -1.36 0 -2.72 -0.04 -4.08 c -0.04 -1.28 0 -2.56 0 -3.84 l 0 -5 c 0 -1.96 0.04 -3.88 0.08 -5.84 c 0 -1.04 0.04 -2.12 0.08 -3.2 c 0 -0.12 -0.08 -0.24 -0.2 -0.24 l -0.52 0 l -1.32 0 c -0.12 0 -0.24 0 -0.36 -0.12 z M 179.86599999999999 28.880000000000003 l -0.12 0.24 l 0 0.44 c -0.04 1.56 -0.04 3.12 -0.08 4.68 c -0.04 1.2 -0.12 2.36 -0.2 3.56 c 0 0.2 -0.08 0.4 -0.08 0.6 c -0.04 0.16 -0.12 0.24 -0.28 0.32 c -0.16 0.04 -0.32 0.08 -0.48 0.16 c -0.56 0.12 -1.08 0.16 -1.64 0 c -0.16 -0.08 -0.28 -0.2 -0.32 -0.36 c -0.04 -0.12 -0.08 -0.24 -0.08 -0.36 c -0.08 -0.68 -0.16 -1.32 -0.16 -2 c -0.08 -1.16 -0.04 -2.32 -0.08 -3.48 c -0.04 -0.96 -0.04 -1.92 -0.08 -2.84 c 0 -0.12 0.04 -0.24 -0.08 -0.36 c -0.24 -0.08 -0.48 -0.04 -0.72 0 c -1.4 0.24 -2.84 0.48 -4.24 0.72 l -0.36 0.12 c -0.04 0.04 -0.12 0.12 -0.12 0.16 c -0.04 0.16 -0.04 0.28 -0.04 0.44 l -0.12 5.64 c 0 0.4 -0.08 0.76 -0.12 1.12 c -0.04 0.2 0.04 0.48 -0.16 0.64 c -0.12 0.12 -0.36 0.12 -0.52 0.2 c -0.28 0.12 -0.6 0.16 -0.88 0.16 l -0.6 0 c -0.24 0 -0.44 -0.08 -0.64 -0.16 c -0.12 0 -0.2 -0.08 -0.2 -0.16 c -0.12 -0.52 -0.24 -1.04 -0.24 -1.56 c -0.04 -1.68 -0.04 -3.36 -0.04 -5.04 l 0 -0.68 c -0.04 -0.2 -0.12 -0.28 -0.28 -0.28 c -0.36 0 -0.68 0.04 -1.04 0.08 c -0.68 0.04 -1.32 -0.08 -2 -0.2 c -0.08 -0.04 -0.16 -0.12 -0.2 -0.2 c -0.08 -0.36 -0.2 -0.68 -0.24 -1 c -0.04 -0.36 0 -0.64 0.04 -0.96 c 0.04 -0.16 0.16 -0.28 0.32 -0.32 c 0.28 -0.08 0.56 -0.12 0.88 -0.12 c 0.76 -0.04 1.52 -0.2 2.24 -0.36 c 0.08 0 0.16 -0.04 0.2 -0.08 c 0.12 -0.24 0.08 -0.52 0.08 -0.76 l 0 -6 l 0 -3.16 c -0.04 -0.44 0.04 -0.88 0.24 -1.28 c 0.36 -0.84 0.72 -1.68 1.12 -2.52 c 0 -0.08 0.08 -0.16 0.16 -0.24 c 0 -0.04 0.08 -0.04 0.08 -0.08 c 0.4 -0.64 1.04 -0.96 1.56 -1.36 c 0.28 -0.2 0.56 -0.32 0.92 -0.32 c 0.2 -0.04 0.4 -0.08 0.6 -0.08 c 0.12 -0.04 0.28 -0.04 0.4 -0.08 c 0.36 -0.12 0.68 -0.2 1.04 -0.04 c 0.08 0.04 0.2 0.04 0.28 0.04 c 0.28 -0.12 0.52 -0.04 0.8 0 c 0.44 0.12 0.92 0.28 1.28 0.56 c 0.24 0.16 0.36 0.4 0.64 0.52 c 0.24 0.08 0.36 0.32 0.52 0.48 c 0.32 0.32 0.6 0.64 0.92 0.92 c 0.24 0.24 0.44 0.52 0.64 0.8 c 0.08 0.12 0.12 0.32 0.2 0.48 c 0.12 0.36 0.24 0.68 0.24 1.08 c 0 0.2 0.04 0.4 0.08 0.56 c 0.08 0.36 0.16 0.68 0.24 1.04 c 0.28 0.8 0.32 1.64 0.52 2.44 c 0.12 0.64 0.12 1.24 0.12 1.88 l 0 0.04 l 0 2.76 c 0 0.12 0 0.24 0.16 0.36 c 0.84 -0.08 1.76 -0.04 2.64 -0.04 c 0.12 0 0.24 0 0.36 0.04 c 0.04 0 0.16 0.08 0.16 0.16 c 0.04 0.28 0.12 0.6 0.16 0.92 c 0.04 0.44 0 0.84 0 1.28 c 0 0.16 -0.04 0.28 -0.08 0.44 s -0.16 0.28 -0.36 0.32 c -0.16 0.04 -0.28 0.04 -0.44 0.04 l -1.4 0 c -0.4 0 -0.76 0 -1.12 0.04 z M 176.22599999999997 23.28 l 0 -2.4 c 0 -0.28 0 -0.56 -0.16 -0.84 c -0.08 -0.12 -0.08 -0.24 -0.12 -0.36 c -0.04 -0.4 -0.16 -0.76 -0.36 -1.12 l -0.24 -0.6 c -0.16 -0.52 -0.4 -1 -0.8 -1.4 c -0.24 -0.24 -0.44 -0.48 -0.68 -0.72 c -0.08 -0.08 -0.24 -0.16 -0.36 -0.2 c -0.2 -0.08 -0.44 -0.12 -0.68 -0.12 c -0.72 0.04 -1 0.28 -1.12 0.92 c -0.04 0.04 -0.04 0.08 -0.04 0.12 c 0 0.32 -0.12 0.6 -0.2 0.88 c -0.12 0.36 -0.2 0.72 -0.24 1.08 c -0.04 0.28 -0.08 0.52 -0.2 0.8 c -0.2 0.56 -0.32 1.2 -0.32 1.8 c 0 0.48 -0.04 0.96 -0.04 1.4 c 0 0.2 0 0.4 0.04 0.6 c 0.08 0.16 0.04 0.36 0.04 0.52 c -0.12 0.52 -0.12 1.04 -0.08 1.56 c 0.04 0.48 0.08 0.96 0.08 1.48 c 0 0.08 0 0.2 0.04 0.28 c 0 0.04 0.04 0.08 0.08 0.08 c 0.12 0.04 0.2 0.04 0.32 0 c 0.6 -0.08 1.2 -0.16 1.8 -0.28 c 0.84 -0.2 1.68 -0.32 2.48 -0.48 c 0.2 0 0.36 -0.04 0.52 -0.08 s 0.24 -0.12 0.24 -0.32 l 0 -0.52 l 0 -2.08 z M 185.31199999999995 25.08 l 0 -11.2 c 0 -0.36 -0.04 -0.72 0.04 -1.08 c 0.04 -0.16 0 -0.32 0 -0.48 l 0 -0.6 c 0.04 -0.16 0.12 -0.24 0.28 -0.28 c 0.08 -0.04 0.16 -0.04 0.24 -0.08 c 0.12 0 0.24 -0.04 0.32 -0.12 c 0.16 -0.08 0.32 -0.12 0.52 -0.16 l 0.48 0 c 0.28 0 0.6 0 0.92 -0.08 c 0.28 -0.04 0.52 -0.04 0.8 0.04 c 0.36 0.08 0.72 0.08 1.08 0 c 0.24 -0.04 0.52 -0.08 0.76 0 c 0.16 0.04 0.36 0 0.52 0 c 0.32 -0.04 0.6 -0.08 0.88 0 c 0.04 0.04 0.08 0.04 0.12 0 c 0.48 -0.12 0.88 0.12 1.36 0.16 c 0.24 0.04 0.52 0.12 0.72 0.32 c 0.04 0.08 0.12 0.12 0.2 0.12 c 0.16 0.04 0.28 0.12 0.36 0.2 c 0.2 0.12 0.4 0.28 0.56 0.4 c 0.12 0.12 0.24 0.28 0.4 0.36 c 0.4 0.28 0.6 0.72 0.92 1.08 c 0.2 0.2 0.36 0.4 0.36 0.72 c 0 0.08 0.08 0.16 0.12 0.24 c 0.04 0.04 0.08 0.12 0.08 0.16 c 0.04 0.48 0.28 0.88 0.28 1.32 c 0.04 0.56 0.24 1.12 0.44 1.64 c 0.08 0.32 0.16 0.6 0.2 0.92 c 0.08 0.4 0.12 0.8 0.2 1.2 c 0.04 0.08 0.04 0.12 0.04 0.2 c -0.04 0.6 0.08 1.16 -0.12 1.76 c -0.08 0.28 -0.04 0.56 -0.04 0.88 c 0 0.16 -0.04 0.32 -0.12 0.44 c -0.2 0.28 -0.28 0.64 -0.2 0.96 c 0.04 0.32 0 0.6 -0.12 0.88 c -0.16 0.36 -0.2 0.72 -0.28 1.12 c -0.04 0.16 -0.08 0.32 -0.2 0.48 c -0.04 0.12 -0.08 0.2 -0.12 0.32 c -0.08 0.2 -0.2 0.36 -0.32 0.52 c -0.08 0.08 -0.16 0.2 -0.24 0.32 c -0.04 0.12 -0.08 0.24 0 0.32 c 0.12 0.24 0.24 0.44 0.4 0.64 c 0.32 0.52 0.68 1.08 1 1.6 c 0.4 0.76 0.8 1.52 1.04 2.36 c 0.16 0.4 0.28 0.76 0.52 1.08 c 0.16 0.2 0.24 0.44 0.32 0.68 c 0.2 0.44 0.36 0.88 0.64 1.28 c 0.12 0.16 0.16 0.32 0.2 0.48 c 0.08 0.28 0.16 0.48 0.36 0.64 c 0.16 0.12 0.24 0.28 0.28 0.48 c 0 0.16 0.08 0.36 0.16 0.52 s 0.04 0.28 -0.08 0.4 c -0.12 0.16 -0.24 0.28 -0.4 0.36 c -0.4 0.28 -0.8 0.52 -1.2 0.76 c -0.2 0.12 -0.44 0.2 -0.64 0.24 c -0.12 0.08 -0.28 0.04 -0.36 -0.08 c -0.2 -0.16 -0.4 -0.36 -0.56 -0.6 c -0.4 -0.64 -0.8 -1.32 -1.04 -2.04 c -0.24 -0.68 -0.52 -1.28 -0.84 -1.92 c -0.2 -0.44 -0.4 -0.92 -0.56 -1.4 c -0.16 -0.44 -0.36 -0.92 -0.6 -1.36 l -1.2 -2.04 l -0.12 -0.24 c -0.12 -0.12 -0.2 -0.16 -0.36 -0.12 c -0.12 0.04 -0.24 0.08 -0.32 0.12 c -0.36 0.16 -0.76 0.24 -1.12 0.24 c -0.28 0 -0.56 -0.04 -0.8 0.08 l -0.36 0 c -0.24 0.04 -0.48 -0.16 -0.72 -0.08 s -0.44 0.04 -0.68 0 c -0.16 -0.04 -0.36 -0.04 -0.52 -0.08 c -0.56 0 -0.6 0.04 -0.6 0.56 l 0 5.08 c 0 0.72 -0.04 1.4 -0.16 2.12 c -0.04 0.36 -0.24 0.68 -0.36 1 c -0.04 0.08 -0.12 0.12 -0.2 0.16 c -0.16 0.04 -0.32 0.04 -0.44 0.16 c -0.04 0.04 -0.12 0.04 -0.2 0.04 l -0.88 0 s -0.48 -0.12 -0.56 -0.4 c -0.28 -0.52 -0.4 -1.12 -0.44 -1.68 c -0.04 -0.36 -0.04 -0.68 -0.04 -1.04 l 0 -11 l 0 0 z M 188.59199999999996 20.56 l 0 5.36 l 0 0.6 c 0 0.12 0.08 0.2 0.2 0.24 c 0.28 0.04 0.56 0.08 0.88 0.04 c 0.52 0.08 1.04 0.04 1.56 0.04 c 0.28 0.04 0.52 0 0.8 -0.04 c 0.64 -0.12 1.16 -0.4 1.64 -0.76 c 0.24 -0.2 0.44 -0.4 0.56 -0.68 c 0.16 -0.44 0.32 -0.84 0.4 -1.28 c 0.04 -0.56 0.12 -1.08 0.24 -1.64 c 0.04 -0.24 0.12 -0.48 0.16 -0.72 c 0.08 -0.56 0.04 -1.12 0.04 -1.68 c 0 -0.08 -0.04 -0.12 -0.04 -0.2 c -0.28 -1.04 -0.44 -2.12 -0.76 -3.16 c -0.32 -1.16 -0.16 -0.96 -1 -1.68 c -0.08 -0.08 -0.16 -0.12 -0.2 -0.2 c -0.24 -0.2 -0.48 -0.32 -0.8 -0.36 c -0.4 -0.08 -0.84 -0.08 -1.28 -0.12 c -0.56 0.08 -1.16 0 -1.76 0.04 l -0.32 0 c -0.24 0 -0.32 0.08 -0.32 0.36 l 0 0.52 l 0 5.32 z M 208.55799999999996 28.439999999999998 c -0.12 0.12 -0.2 0.32 -0.28 0.48 c -0.16 0.16 -0.32 0.28 -0.56 0.28 s -0.44 0 -0.68 0.04 c -0.04 0.08 -0.08 0.16 -0.08 0.24 l 0 0.84 l 0 9.04 c 0 0.32 -0.04 0.6 -0.04 0.92 c 0 0.08 -0.12 0.2 -0.2 0.2 c -0.88 0.16 -1.76 0.24 -2.56 0.2 c -0.24 -0.04 -0.48 -0.12 -0.68 -0.2 c -0.24 -0.28 -0.28 -0.6 -0.28 -0.88 c 0 -0.6 -0.04 -1.24 -0.04 -1.84 l 0 -9.64 l 0 -10.12 c 0.04 -0.92 0.08 -1.88 0.08 -2.8 c 0.04 -0.96 0.08 -1.88 0.12 -2.84 c 0 -0.64 0.08 -1.28 0.16 -1.88 c 0 -0.24 0.12 -0.36 0.36 -0.4 c 0.2 -0.04 0.36 -0.12 0.56 -0.16 c 0.64 -0.2 1.32 -0.12 1.96 0.08 c 0.08 0.04 0.16 0.12 0.2 0.24 c 0 0.08 0.04 0.16 0.04 0.24 c 0.08 0.84 0.16 1.64 0.16 2.48 c 0 0.68 0.04 1.36 0.12 2.08 c 0.04 0.24 0.04 0.52 0.04 0.8 l 0 8.08 c 0 0.24 0 0.48 0.04 0.72 c 0 0.04 0.04 0.08 0.08 0.12 c 0.04 0 0.08 -0.04 0.08 -0.04 c 0.08 -0.08 0.16 -0.16 0.2 -0.28 c 0.68 -1 1.32 -2.04 1.84 -3.12 c 0.24 -0.48 0.44 -0.96 0.6 -1.48 c 0.2 -0.44 0.4 -0.88 0.52 -1.4 c 0.04 -0.12 0.16 -0.28 0.24 -0.4 c 0.48 -0.64 0.84 -1.32 1.4 -1.88 c 0.16 -0.2 0.28 -0.48 0.4 -0.72 c 0.08 -0.08 0.08 -0.2 0.12 -0.32 c 0 -0.12 0 -0.28 0.04 -0.4 c 0.12 -0.2 0.24 -0.36 0.4 -0.52 c 0.28 -0.24 0.52 -0.52 0.6 -0.88 c 0 -0.04 0.04 -0.08 0.08 -0.16 c 0.08 -0.12 0.16 -0.2 0.32 -0.2 c 0.28 0 0.56 -0.08 0.8 -0.2 c 0.08 -0.04 0.16 -0.08 0.2 -0.08 c 0.2 0 0.24 0.16 0.36 0.24 c 0.2 0.16 0.4 0.32 0.64 0.36 s 0.44 0.2 0.64 0.32 c 0.16 0.4 0.28 0.8 0.44 1.16 c 0.16 0.28 0.08 0.48 -0.08 0.68 c -0.08 0.12 -0.2 0.2 -0.28 0.32 s -0.2 0.2 -0.28 0.32 c -0.12 0.12 -0.2 0.24 -0.24 0.44 c -0.08 0.36 -0.24 0.72 -0.44 1.04 c -0.12 0.16 -0.2 0.32 -0.28 0.52 c -0.12 0.32 -0.32 0.56 -0.6 0.76 c -0.48 0.32 -0.8 0.76 -1.08 1.24 c -0.08 0.24 -0.2 0.44 -0.28 0.68 c -0.4 0.76 -0.76 1.56 -1.12 2.32 c -0.24 0.56 -0.6 1.08 -0.92 1.56 c -0.12 0.16 -0.12 0.32 -0.04 0.48 c 0.28 0.72 0.68 1.4 1.08 2.04 c 0.64 0.96 1.12 1.96 1.64 3 c 0.32 0.64 0.68 1.24 1 1.88 c 0.24 0.44 0.48 0.88 0.68 1.32 c 0.4 0.84 0.92 1.6 1.6 2.24 c 0.2 0.2 0.4 0.44 0.48 0.76 c 0.08 0.16 0.2 0.32 0.36 0.44 c 0.08 0.08 0.16 0.2 0.2 0.32 c 0.16 0.4 0.32 0.72 0.56 1.04 c 0.16 0.24 0.2 0.52 0.16 0.8 c 0 0.08 -0.04 0.16 -0.08 0.2 c -0.32 0.24 -0.4 0.6 -0.52 0.92 c -0.52 0.24 -1 0.44 -1.52 0.64 c -0.36 0.12 -0.72 0.12 -1.04 -0.08 c -0.24 -0.2 -0.48 -0.4 -0.6 -0.68 c -0.12 -0.36 -0.28 -0.68 -0.48 -0.96 c -0.24 -0.52 -0.56 -0.96 -0.88 -1.4 c -0.68 -0.88 -1.2 -1.8 -1.72 -2.76 c -0.32 -0.68 -0.68 -1.32 -1.04 -1.96 c -0.36 -0.72 -0.72 -1.44 -1.12 -2.16 c -0.24 -0.48 -0.48 -1.04 -0.92 -1.44 c -0.16 -0.16 -0.28 -0.44 -0.4 -0.64 c -0.04 -0.08 -0.08 -0.12 -0.16 -0.2 l -0.08 0 z M 233.52399999999997 28.880000000000003 l -0.12 0.24 l 0 0.44 c -0.04 1.56 -0.04 3.12 -0.08 4.68 c -0.04 1.2 -0.12 2.36 -0.2 3.56 c 0 0.2 -0.08 0.4 -0.08 0.6 c -0.04 0.16 -0.12 0.24 -0.28 0.32 c -0.16 0.04 -0.32 0.08 -0.48 0.16 c -0.56 0.12 -1.08 0.16 -1.64 0 c -0.16 -0.08 -0.28 -0.2 -0.32 -0.36 c -0.04 -0.12 -0.08 -0.24 -0.08 -0.36 c -0.08 -0.68 -0.16 -1.32 -0.16 -2 c -0.08 -1.16 -0.04 -2.32 -0.08 -3.48 c -0.04 -0.96 -0.04 -1.92 -0.08 -2.84 c 0 -0.12 0.04 -0.24 -0.08 -0.36 c -0.24 -0.08 -0.48 -0.04 -0.72 0 c -1.4 0.24 -2.84 0.48 -4.24 0.72 l -0.36 0.12 c -0.04 0.04 -0.12 0.12 -0.12 0.16 c -0.04 0.16 -0.04 0.28 -0.04 0.44 l -0.12 5.64 c 0 0.4 -0.08 0.76 -0.12 1.12 c -0.04 0.2 0.04 0.48 -0.16 0.64 c -0.12 0.12 -0.36 0.12 -0.52 0.2 c -0.28 0.12 -0.6 0.16 -0.88 0.16 l -0.6 0 c -0.24 0 -0.44 -0.08 -0.64 -0.16 c -0.12 0 -0.2 -0.08 -0.2 -0.16 c -0.12 -0.52 -0.24 -1.04 -0.24 -1.56 c -0.04 -1.68 -0.04 -3.36 -0.04 -5.04 l 0 -0.68 c -0.04 -0.2 -0.12 -0.28 -0.28 -0.28 c -0.36 0 -0.68 0.04 -1.04 0.08 c -0.68 0.04 -1.32 -0.08 -2 -0.2 c -0.08 -0.04 -0.16 -0.12 -0.2 -0.2 c -0.08 -0.36 -0.2 -0.68 -0.24 -1 c -0.04 -0.36 0 -0.64 0.04 -0.96 c 0.04 -0.16 0.16 -0.28 0.32 -0.32 c 0.28 -0.08 0.56 -0.12 0.88 -0.12 c 0.76 -0.04 1.52 -0.2 2.24 -0.36 c 0.08 0 0.16 -0.04 0.2 -0.08 c 0.12 -0.24 0.08 -0.52 0.08 -0.76 l 0 -6 l 0 -3.16 c -0.04 -0.44 0.04 -0.88 0.24 -1.28 c 0.36 -0.84 0.72 -1.68 1.12 -2.52 c 0 -0.08 0.08 -0.16 0.16 -0.24 c 0 -0.04 0.08 -0.04 0.08 -0.08 c 0.4 -0.64 1.04 -0.96 1.56 -1.36 c 0.28 -0.2 0.56 -0.32 0.92 -0.32 c 0.2 -0.04 0.4 -0.08 0.6 -0.08 c 0.12 -0.04 0.28 -0.04 0.4 -0.08 c 0.36 -0.12 0.68 -0.2 1.04 -0.04 c 0.08 0.04 0.2 0.04 0.28 0.04 c 0.28 -0.12 0.52 -0.04 0.8 0 c 0.44 0.12 0.92 0.28 1.28 0.56 c 0.24 0.16 0.36 0.4 0.64 0.52 c 0.24 0.08 0.36 0.32 0.52 0.48 c 0.32 0.32 0.6 0.64 0.92 0.92 c 0.24 0.24 0.44 0.52 0.64 0.8 c 0.08 0.12 0.12 0.32 0.2 0.48 c 0.12 0.36 0.24 0.68 0.24 1.08 c 0 0.2 0.04 0.4 0.08 0.56 c 0.08 0.36 0.16 0.68 0.24 1.04 c 0.28 0.8 0.32 1.64 0.52 2.44 c 0.12 0.64 0.12 1.24 0.12 1.88 l 0 0.04 l 0 2.76 c 0 0.12 0 0.24 0.16 0.36 c 0.84 -0.08 1.76 -0.04 2.64 -0.04 c 0.12 0 0.24 0 0.36 0.04 c 0.04 0 0.16 0.08 0.16 0.16 c 0.04 0.28 0.12 0.6 0.16 0.92 c 0.04 0.44 0 0.84 0 1.28 c 0 0.16 -0.04 0.28 -0.08 0.44 s -0.16 0.28 -0.36 0.32 c -0.16 0.04 -0.28 0.04 -0.44 0.04 l -1.4 0 c -0.4 0 -0.76 0 -1.12 0.04 z M 229.88399999999996 23.28 l 0 -2.4 c 0 -0.28 0 -0.56 -0.16 -0.84 c -0.08 -0.12 -0.08 -0.24 -0.12 -0.36 c -0.04 -0.4 -0.16 -0.76 -0.36 -1.12 l -0.24 -0.6 c -0.16 -0.52 -0.4 -1 -0.8 -1.4 c -0.24 -0.24 -0.44 -0.48 -0.68 -0.72 c -0.08 -0.08 -0.24 -0.16 -0.36 -0.2 c -0.2 -0.08 -0.44 -0.12 -0.68 -0.12 c -0.72 0.04 -1 0.28 -1.12 0.92 c -0.04 0.04 -0.04 0.08 -0.04 0.12 c 0 0.32 -0.12 0.6 -0.2 0.88 c -0.12 0.36 -0.2 0.72 -0.24 1.08 c -0.04 0.28 -0.08 0.52 -0.2 0.8 c -0.2 0.56 -0.32 1.2 -0.32 1.8 c 0 0.48 -0.04 0.96 -0.04 1.4 c 0 0.2 0 0.4 0.04 0.6 c 0.08 0.16 0.04 0.36 0.04 0.52 c -0.12 0.52 -0.12 1.04 -0.08 1.56 c 0.04 0.48 0.08 0.96 0.08 1.48 c 0 0.08 0 0.2 0.04 0.28 c 0 0.04 0.04 0.08 0.08 0.08 c 0.12 0.04 0.2 0.04 0.32 0 c 0.6 -0.08 1.2 -0.16 1.8 -0.28 c 0.84 -0.2 1.68 -0.32 2.48 -0.48 c 0.2 0 0.36 -0.04 0.52 -0.08 s 0.24 -0.12 0.24 -0.32 l 0 -0.52 l 0 -2.08 z M 239.60999999999996 11.600000000000001 c 0.16 -0.04 0.28 -0.08 0.4 -0.12 c 0.52 -0.24 1.08 -0.2 1.64 -0.2 c 0.08 0 0.12 0 0.16 0.04 c 0.56 0.12 0.68 0.08 0.72 0.76 c 0 0.72 0.04 1.48 0.04 2.2 l 0 20.8 l 0 0.72 c 0 0.28 0.04 0.36 0.36 0.36 l 0.44 0 c 0.6 0.12 1.16 0 1.72 -0.12 c 0.52 -0.12 1.04 -0.2 1.56 -0.2 l 3.84 0 c 0.08 0 0.16 0.04 0.28 0.04 c 0.2 0.72 0.24 1.44 0.2 2.2 c 0 0.16 -0.04 0.32 -0.08 0.48 c -0.04 0.2 -0.2 0.32 -0.4 0.36 c -0.24 0.04 -0.48 0.04 -0.72 0.04 c -0.6 0 -1.2 0 -1.84 -0.04 c -0.8 0 -1.64 0.08 -2.44 0.24 c -0.16 0.04 -0.28 0.04 -0.44 0.08 c -0.36 0.04 -0.68 0.08 -1.04 0.08 l -0.84 0 c -0.2 0 -0.36 -0.04 -0.52 -0.04 c -0.96 0 -1.88 -0.16 -2.84 -0.2 c -0.24 0 -0.48 -0.04 -0.72 -0.2 c -0.28 -0.52 -0.32 -1.12 -0.28 -1.72 c 0.04 -0.12 0.04 -0.24 0.08 -0.36 c 0.04 -0.16 0.12 -0.32 0.32 -0.4 c 0.04 -0.04 0.08 -0.08 0.12 -0.08 c 0.08 -0.24 0.08 -0.48 0.08 -0.72 l 0 -5.52 c 0 -4.32 -0.04 -8.68 0 -13 c 0 -1.2 0 -2.44 0.04 -3.68 c 0 -0.52 0.08 -1.04 0.12 -1.56 c 0 -0.08 0 -0.12 0.04 -0.24 z M 266.73599999999993 28.880000000000003 l -0.12 0.24 l 0 0.44 c -0.04 1.56 -0.04 3.12 -0.08 4.68 c -0.04 1.2 -0.12 2.36 -0.2 3.56 c 0 0.2 -0.08 0.4 -0.08 0.6 c -0.04 0.16 -0.12 0.24 -0.28 0.32 c -0.16 0.04 -0.32 0.08 -0.48 0.16 c -0.56 0.12 -1.08 0.16 -1.64 0 c -0.16 -0.08 -0.28 -0.2 -0.32 -0.36 c -0.04 -0.12 -0.08 -0.24 -0.08 -0.36 c -0.08 -0.68 -0.16 -1.32 -0.16 -2 c -0.08 -1.16 -0.04 -2.32 -0.08 -3.48 c -0.04 -0.96 -0.04 -1.92 -0.08 -2.84 c 0 -0.12 0.04 -0.24 -0.08 -0.36 c -0.24 -0.08 -0.48 -0.04 -0.72 0 c -1.4 0.24 -2.84 0.48 -4.24 0.72 l -0.36 0.12 c -0.04 0.04 -0.12 0.12 -0.12 0.16 c -0.04 0.16 -0.04 0.28 -0.04 0.44 l -0.12 5.64 c 0 0.4 -0.08 0.76 -0.12 1.12 c -0.04 0.2 0.04 0.48 -0.16 0.64 c -0.12 0.12 -0.36 0.12 -0.52 0.2 c -0.28 0.12 -0.6 0.16 -0.88 0.16 l -0.6 0 c -0.24 0 -0.44 -0.08 -0.64 -0.16 c -0.12 0 -0.2 -0.08 -0.2 -0.16 c -0.12 -0.52 -0.24 -1.04 -0.24 -1.56 c -0.04 -1.68 -0.04 -3.36 -0.04 -5.04 l 0 -0.68 c -0.04 -0.2 -0.12 -0.28 -0.28 -0.28 c -0.36 0 -0.68 0.04 -1.04 0.08 c -0.68 0.04 -1.32 -0.08 -2 -0.2 c -0.08 -0.04 -0.16 -0.12 -0.2 -0.2 c -0.08 -0.36 -0.2 -0.68 -0.24 -1 c -0.04 -0.36 0 -0.64 0.04 -0.96 c 0.04 -0.16 0.16 -0.28 0.32 -0.32 c 0.28 -0.08 0.56 -0.12 0.88 -0.12 c 0.76 -0.04 1.52 -0.2 2.24 -0.36 c 0.08 0 0.16 -0.04 0.2 -0.08 c 0.12 -0.24 0.08 -0.52 0.08 -0.76 l 0 -6 l 0 -3.16 c -0.04 -0.44 0.04 -0.88 0.24 -1.28 c 0.36 -0.84 0.72 -1.68 1.12 -2.52 c 0 -0.08 0.08 -0.16 0.16 -0.24 c 0 -0.04 0.08 -0.04 0.08 -0.08 c 0.4 -0.64 1.04 -0.96 1.56 -1.36 c 0.28 -0.2 0.56 -0.32 0.92 -0.32 c 0.2 -0.04 0.4 -0.08 0.6 -0.08 c 0.12 -0.04 0.28 -0.04 0.4 -0.08 c 0.36 -0.12 0.68 -0.2 1.04 -0.04 c 0.08 0.04 0.2 0.04 0.28 0.04 c 0.28 -0.12 0.52 -0.04 0.8 0 c 0.44 0.12 0.92 0.28 1.28 0.56 c 0.24 0.16 0.36 0.4 0.64 0.52 c 0.24 0.08 0.36 0.32 0.52 0.48 c 0.32 0.32 0.6 0.64 0.92 0.92 c 0.24 0.24 0.44 0.52 0.64 0.8 c 0.08 0.12 0.12 0.32 0.2 0.48 c 0.12 0.36 0.24 0.68 0.24 1.08 c 0 0.2 0.04 0.4 0.08 0.56 c 0.08 0.36 0.16 0.68 0.24 1.04 c 0.28 0.8 0.32 1.64 0.52 2.44 c 0.12 0.64 0.12 1.24 0.12 1.88 l 0 0.04 l 0 2.76 c 0 0.12 0 0.24 0.16 0.36 c 0.84 -0.08 1.76 -0.04 2.64 -0.04 c 0.12 0 0.24 0 0.36 0.04 c 0.04 0 0.16 0.08 0.16 0.16 c 0.04 0.28 0.12 0.6 0.16 0.92 c 0.04 0.44 0 0.84 0 1.28 c 0 0.16 -0.04 0.28 -0.08 0.44 s -0.16 0.28 -0.36 0.32 c -0.16 0.04 -0.28 0.04 -0.44 0.04 l -1.4 0 c -0.4 0 -0.76 0 -1.12 0.04 z M 263.09599999999995 23.28 l 0 -2.4 c 0 -0.28 0 -0.56 -0.16 -0.84 c -0.08 -0.12 -0.08 -0.24 -0.12 -0.36 c -0.04 -0.4 -0.16 -0.76 -0.36 -1.12 l -0.24 -0.6 c -0.16 -0.52 -0.4 -1 -0.8 -1.4 c -0.24 -0.24 -0.44 -0.48 -0.68 -0.72 c -0.08 -0.08 -0.24 -0.16 -0.36 -0.2 c -0.2 -0.08 -0.44 -0.12 -0.68 -0.12 c -0.72 0.04 -1 0.28 -1.12 0.92 c -0.04 0.04 -0.04 0.08 -0.04 0.12 c 0 0.32 -0.12 0.6 -0.2 0.88 c -0.12 0.36 -0.2 0.72 -0.24 1.08 c -0.04 0.28 -0.08 0.52 -0.2 0.8 c -0.2 0.56 -0.32 1.2 -0.32 1.8 c 0 0.48 -0.04 0.96 -0.04 1.4 c 0 0.2 0 0.4 0.04 0.6 c 0.08 0.16 0.04 0.36 0.04 0.52 c -0.12 0.52 -0.12 1.04 -0.08 1.56 c 0.04 0.48 0.08 0.96 0.08 1.48 c 0 0.08 0 0.2 0.04 0.28 c 0 0.04 0.04 0.08 0.08 0.08 c 0.12 0.04 0.2 0.04 0.32 0 c 0.6 -0.08 1.2 -0.16 1.8 -0.28 c 0.84 -0.2 1.68 -0.32 2.48 -0.48 c 0.2 0 0.36 -0.04 0.52 -0.08 s 0.24 -0.12 0.24 -0.32 l 0 -0.52 l 0 -2.08 z" stroke-linecap="round"/>
</g>
</svg>